<?xml version="1.0" encoding="UTF-8" standalone="no"?>
<!-- Created with Inkscape (http://www.inkscape.org/) -->

<svg
   xmlns:dc="http://purl.org/dc/elements/1.1/"
   xmlns:cc="http://creativecommons.org/ns#"
   xmlns:rdf="http://www.w3.org/1999/02/22-rdf-syntax-ns#"
   xmlns:svg="http://www.w3.org/2000/svg"
   xmlns="http://www.w3.org/2000/svg"
   xmlns:sodipodi="http://sodipodi.sourceforge.net/DTD/sodipodi-0.dtd"
   xmlns:inkscape="http://www.inkscape.org/namespaces/inkscape"
   width="800"
   height="600"
   id="svg2"
   version="1.1"
   inkscape:version="0.48.4 r9939"
   sodipodi:docname="template.svg">
  <sodipodi:namedview
     id="base"
     pagecolor="#ffffff"
     bordercolor="#666666"
     borderopacity="1.0"
     inkscape:pageopacity="0.0"
     inkscape:pageshadow="2"
     inkscape:zoom="0.98994949"
     inkscape:cx="501.86669"
     inkscape:cy="251.7136"
     inkscape:document-units="px"
     inkscape:current-layer="layer2"
     showgrid="true"
     inkscape:showpageshadow="false"
     inkscape:snap-bbox="true"
     borderlayer="false"
     showborder="true"
     fit-margin-top="0"
     fit-margin-left="0"
     fit-margin-right="0"
     fit-margin-bottom="0"
     inkscape:window-width="1920"
     inkscape:window-height="1027"
     inkscape:window-x="0"
     inkscape:window-y="26"
     inkscape:window-maximized="1">
    <inkscape:grid
       originy="1.0000485px"
       originx="1px"
       dotted="true"
       spacingy="25px"
       spacingx="25px"
       snapvisiblegridlinesonly="true"
       enabled="true"
       visible="true"
       empspacing="1"
       id="grid2987"
       type="xygrid" />
  </sodipodi:namedview>
  <defs
     id="defs4" />
  <metadata
     id="metadata7">
    <rdf:RDF>
      <cc:Work
         rdf:about="">
        <dc:format>image/svg+xml</dc:format>
        <dc:type
           rdf:resource="http://purl.org/dc/dcmitype/StillImage" />
        <dc:title></dc:title>
      </cc:Work>
    </rdf:RDF>
  </metadata>
  <g
     transform="translate(1,-453.36223)"
     id="layer1"
     inkscape:groupmode="layer"
     inkscape:label="Layer 1" />
  <g
     transform="translate(1,373.99995)"
     inkscape:label="INVADER"
     id="layer2"
     inkscape:groupmode="layer">
    <rect
       transform="translate(-1,-373.99995)"
       y="-1.0000485"
       x="1"
       height="600"
       width="800"
       id="rect3039"
       style="fill:#ffe680;fill-opacity:1;stroke:#000000;stroke-width:0;stroke-miterlimit:0;stroke-opacity:0;stroke-dasharray:none" />
    <path
       d="m 0.125,-374.875 0,600 m 25,-600 0,600 m 25,-600 0,600 m 25,-600 0,600 m 25,-600 0,600 m 25,-600 0,600 m 25,-600 0,600 m 25,-600 0,600 m 25,-600 0,600 m 25,-600 0,600 m 25,-600 0,600 m 25,-600 0,600 m 25,-600 0,600 m 25,-600 0,600 m 25,-600 0,600 m 25,-600 0,600 m 25,-600 0,600 m 25,-600 0,600 m 25,-600 0,600 m 25,-600 0,600 m 25,-600 0,600 m 25,-600 0,600 m 25,-600 0,600 m 25,-600 0,600 m 25,-600 0,600 m 25,-600 0,600 m 25,-600 0,600 m 25,-600 0,600 m 25,-600 0,600 m 25,-600 0,600 m 25,-600 0,600 m 25,-600 0,600 m 25,-600 0,600 m -800,-600 800,0 m -800,25 800,0 m -800,25 800,0 m -800,25 800,0 m -800,25 800,0 m -800,25 800,0 m -800,25 800,0 m -800,25 800,0 m -800,25 800,0 m -800,25 800,0 m -800,25 800,0 m -800,25.000001 800,0 m -800,25.000002 800,0 m -800,25 800,0 m -800,25 800,0 m -800,25.00000054 800,0 m -800,24.99999946 800,0 m -800,25 800,0 m -800,25 800,0 m -800,24.999997 800,0 m -800,25 800,0 m -800,25 800,0 m -800,25 800,0 m -800,25 800,0 m -800,25 800,0"
       style="fill:#ffcc00;stroke:#bd9718;stroke-width:1.15;stroke-linecap:butt;stroke-linejoin:miter;stroke-opacity:1;stroke-miterlimit:4;stroke-dasharray:none;marker-start:none"
       id="path3347"
       inkscape:connector-curvature="0" />
  </g>
</svg>
